<?xml version="1.0" standalone="no"?>
<!DOCTYPE svg PUBLIC "-//W3C//DTD SVG 20010904//EN"
 "http://www.w3.org/TR/2001/REC-SVG-20010904/DTD/svg10.dtd">
<svg version="1.0" xmlns="http://www.w3.org/2000/svg"
 width="512.000000pt" height="512.000000pt" viewBox="0 0 512.000000 512.000000"
 preserveAspectRatio="xMidYMid meet">
<metadata>
Created by potrace 1.14, written by Peter Selinger 2001-2017
</metadata>
<g transform="translate(0.000000,512.000000) scale(0.100000,-0.100000)"
fill="#000000" stroke="none">
<path d="M301 5103 c-40 -20 -121 -99 -121 -119 0 -8 -4 -14 -9 -14 -16 0 -86
-196 -105 -292 -2 -12 -9 -44 -15 -69 -6 -25 -12 -61 -15 -80 -2 -19 -7 -54
-10 -79 -3 -25 -9 -63 -12 -85 -3 -22 -7 -148 -10 -280 -5 -227 -4 -242 14
-271 31 -49 120 -88 207 -91 150 -5 202 56 255 300 11 51 23 99 27 107 3 8 8
23 10 33 6 34 46 122 81 177 66 107 176 187 321 235 81 27 88 29 201 42 160
18 445 2 503 -28 9 -5 17 -8 17 -5 0 10 126 -47 164 -75 66 -47 82 -63 118
-120 35 -54 50 -89 64 -144 4 -16 9 -319 9 -673 1 -353 5 -645 8 -648 6 -7
406 198 442 226 7 6 10 340 9 977 -1 532 -2 973 -3 980 -1 10 -235 12 -1058
12 -963 0 -1061 -1 -1092 -16z"/>
<path d="M2669 5117 c-4 -6 -4 -1847 -1 -1847 3 0 61 27 131 61 168 80 175 84
256 118 l70 30 1 254 c1 140 4 270 8 289 3 18 9 53 12 78 9 70 53 190 91 247
103 156 285 233 563 236 66 0 209 -11 220 -18 4 -2 19 -6 34 -9 97 -18 239
-75 303 -123 55 -41 117 -107 156 -166 38 -58 97 -180 97 -200 0 -8 3 -17 7
-21 4 -3 8 -12 9 -19 2 -18 93 -210 102 -217 4 -3 15 -17 24 -31 57 -90 253
-90 318 1 42 59 51 112 50 308 -2 172 -10 274 -34 378 -2 12 -7 37 -10 55 -3
19 -17 75 -31 124 -14 50 -28 100 -31 113 -5 27 -37 110 -65 172 -33 71 -96
147 -142 169 -41 20 -61 20 -1089 20 -577 0 -1049 -1 -1049 -2z"/>
<path d="M3804 3478 c-3 -5 -10 -6 -15 -2 -19 11 -214 -28 -354 -72 -174 -55
-408 -156 -640 -275 l-130 -68 0 -505 c-1 -279 2 -505 5 -504 3 2 78 40 165
85 303 154 643 285 810 310 17 2 41 6 55 9 75 14 116 17 225 17 118 0 212 -6
270 -18 17 -4 44 -8 60 -10 86 -11 298 -76 421 -130 113 -49 260 -128 347
-186 49 -33 90 -59 93 -59 2 0 4 227 4 504 l0 504 -107 69 c-193 124 -483 253
-625 278 -17 3 -34 8 -38 10 -3 2 -17 6 -31 9 -13 3 -33 7 -44 9 -19 4 -40 8
-145 23 -65 10 -321 11 -326 2z"/>
<path d="M2415 2931 c-6 -5 -102 -55 -215 -111 -113 -56 -216 -108 -230 -115
-31 -16 -269 -102 -301 -109 -13 -3 -42 -10 -64 -16 -52 -14 -61 -16 -180 -33
-96 -14 -418 -16 -520 -3 -130 17 -191 25 -220 31 -11 3 -41 9 -67 14 -208 44
-456 137 -573 217 -20 13 -38 24 -41 24 -2 0 -3 -228 -2 -506 l3 -506 70 -42
c102 -61 301 -144 386 -160 13 -2 38 -9 54 -16 17 -6 31 -11 33 -10 1 1 26 -4
55 -9 28 -6 63 -14 77 -16 14 -3 41 -8 60 -10 19 -3 49 -7 65 -10 96 -14 191
-19 365 -19 189 -1 278 6 350 24 19 5 48 11 63 14 90 16 344 103 375 128 6 6
12 8 12 4 0 -3 17 3 38 13 20 11 75 38 122 61 97 46 264 135 296 155 21 14 22
15 22 514 0 505 -1 523 -33 492z"/>
<path d="M2888 1963 l-227 -116 -1 -536 c-1 -295 -2 -686 -3 -869 -1 -215 2
-332 8 -333 6 0 26 -2 45 -4 19 -1 70 -6 112 -9 42 -4 87 -9 100 -11 13 -3 43
-7 68 -10 25 -2 68 -9 95 -14 28 -6 70 -13 95 -16 56 -7 105 -14 150 -21 19
-3 105 -7 190 -10 127 -3 165 -1 204 12 100 34 160 134 157 259 -3 114 -66
166 -288 236 -216 68 -327 121 -379 180 -23 27 -71 109 -73 124 0 6 -4 30 -7
55 -4 25 -7 303 -7 618 0 315 -3 574 -6 576 -3 2 -108 -48 -233 -111z"/>
<path d="M2425 1721 c-13 -13 -380 -194 -395 -196 -3 0 -12 -5 -20 -10 -13 -8
-15 -49 -16 -255 -1 -275 -4 -304 -45 -410 -55 -143 -151 -225 -340 -290 -60
-21 -109 -36 -109 -34 0 7 -172 -76 -186 -90 -30 -30 -52 -96 -47 -144 6 -76
22 -111 73 -161 106 -105 278 -134 560 -95 25 3 55 8 67 9 23 3 223 34 261 40
38 6 176 19 200 18 12 -1 23 4 23 11 1 6 2 372 3 814 1 556 -2 802 -9 802 -6
0 -15 -4 -20 -9z"/>
</g>
</svg>
